<?xml version="1.0" encoding="utf-8"?>
<!-- Generator: Adobe Illustrator 20.0.0, SVG Export Plug-In . SVG Version: 6.00 Build 0)  -->
<svg version="1.1" id="Layer_1" xmlns="http://www.w3.org/2000/svg" xmlns:xlink="http://www.w3.org/1999/xlink" x="0px" y="0px"
	 viewBox="0 0 396.2 431.4" style="enable-background:new 0 0 396.2 431.4;" xml:space="preserve">
<style type="text/css">
	.st0{opacity:0.37;}
	.st1{fill:#5D5D5D;}
</style>
<g transform="translate(529.905 -2089.825) rotate(90)" class="st0">
	<path class="st1" d="M2250.2,495.4c-1.5-1.5-3.5-2.3-5.6-2.2c-6.9,0-15.6,6.9-18.5,10c-10.7,11.5-11.9,18-9.8,26.7h0.6
		c-2.1-8.6-0.9-14.9,9.6-26.3c2.8-3.1,11.4-9.8,18.1-9.8c1.9-0.1,3.8,0.7,5.2,2c2.3,2.3,3.5,6.6,3.4,12.8
		c-0.2,7.2-1.2,14.4-2.9,21.3h0.6c1.8-7,2.8-14.1,2.9-21.3C2253.8,502.3,2252.6,497.8,2250.2,495.4z"/>
	<path class="st1" d="M2402.6,497.2c-0.4-3.7-2.8-7-7-9.6c-7.6-4.8-23.5-6.9-35.9-6.9c-2.4,0-4.6,0.1-6.6,0.2
		c-13.1,1.2-26,3.6-38.5,7.3c-2,0.6-3.9,1.2-5.9,1.8c-23.1,7.7-36.4,19.8-42.8,39.9h0.6c6.4-19.9,19.6-31.8,42.4-39.4
		c1.9-0.6,3.9-1.2,5.8-1.8c12.5-3.7,25.4-6.1,38.4-7.3c1.9-0.2,4.1-0.2,6.5-0.2c12.3,0,28.1,2.1,35.6,6.9c4.1,2.6,6.3,5.7,6.7,9.2
		c1,8.9-9.4,19.4-17.8,27.9c-1.7,1.7-3.3,3.3-4.6,4.8h0.8c1.3-1.4,2.7-2.8,4.3-4.4C2393.1,517,2403.6,506.4,2402.6,497.2z"/>
	<path class="st1" d="M2232.9,528c-0.5-1.5-1.2-2.9-2.1-4.2c-1.2-1.8-2.3-3.4-1.9-6.5c0.6-4.1,5.6-14.3,10.9-14.3c0.1,0,0.1,0,0.2,0
		c2.7,0.1,4.4,0.8,5.1,2c1.2,2.3-1,6.1-2.8,9.2c-0.8,1.2-1.5,2.6-2,4c-0.2,1.5,0.3,2.9,1.3,4c0.7,0.7,1.2,1.7,1.2,2.7
		c0,1.8-0.9,3.5-2.2,4.7c-0.1,0.1-0.1,0.1-0.2,0.2h0.5c1.4-1.2,2.2-3,2.3-4.9c0-1.1-0.5-2.2-1.3-2.9c-1-1-1.4-2.3-1.3-3.7
		c0.5-1.4,1.1-2.7,1.9-3.9c1.8-3.2,4.1-7.1,2.8-9.5c-0.7-1.4-2.5-2.1-5.4-2.2c-0.1,0-0.1,0-0.2,0c-5.6,0-10.7,10.4-11.3,14.6
		c-0.4,3.1,0.7,4.9,1.9,6.7c0.9,1.3,1.6,2.6,2.1,4.1c0.2,0.6,0.3,1.2,0.3,1.8h0.3C2233.1,529.3,2233,528.7,2232.9,528z"/>
	<path class="st1" d="M2345.5,514.5c-0.8-0.3-1.6-0.4-2.5-0.3c-6.4,0-20,3.8-20.1,3.9c-1.5,0.4-3,0.9-4.5,1.4
		c-7.5,2.5-13.1,5.8-17.1,10.5h0.4c4-4.5,9.4-7.7,16.8-10.2c1.5-0.5,3-0.9,4.5-1.4c0.1,0,13.7-3.8,20-3.8c0.8,0,1.6,0.1,2.3,0.3
		c2.5,1.1,1.6,3.8-0.4,10c-0.5,1.5-1,3.2-1.6,5.1h0.3c0.6-1.9,1.1-3.6,1.6-5C2347.3,518.8,2348.2,515.7,2345.5,514.5z"/>
	<path class="st1" d="M2330.5,524.5c-1.9,0.1-3.7,0.4-5.5,0.9c-1.4,0.4-2.8,0.8-4.2,1.3c-2.6,0.8-5.1,1.9-7.4,3.2h1.2
		c2.1-1.1,4.2-2,6.5-2.7c1.3-0.4,2.7-0.9,4.1-1.3c1.7-0.5,3.5-0.8,5.4-0.9c2.8,0,4.4,1,5,3c0.1,0.6,0.2,1.3,0.2,1.9h0.6
		c0-0.7,0-1.4-0.2-2C2335.6,526.3,2334.3,524.5,2330.5,524.5z"/>
	<path class="st1" d="M2365.2,506.2c-1-1.9-4.3-2.6-10.2-2.1c-11.6,1.1-23,3.2-34.1,6.5c-1.7,0.5-3.3,1-4.8,1.5
		c-11.2,3.7-19.1,9.4-24.2,17.8h0.4c5.1-8.2,12.8-13.8,23.9-17.5c1.6-0.5,3.2-1,4.8-1.5c11.1-3.3,22.5-5.4,34.1-6.5
		c1.2-0.1,2.3-0.2,3.3-0.2c3.7,0,5.9,0.7,6.6,2.1c1.2,2.5-2.2,7.1-5.6,11.5c-0.6,0.8-1.2,1.6-1.8,2.4c-2.3,3.1-4.4,6.3-6.3,9.6h0.4
		c1.9-3.3,3.9-6.4,6.2-9.4c0.6-0.8,1.2-1.6,1.8-2.4C2363.2,513.4,2366.5,508.9,2365.2,506.2z"/>
	<path class="st1" d="M2376.4,511.9c5.1-4.8,7.1-8.6,6.1-11.2c-1.3-3.2-6.9-4.8-16.7-4.8c-3.3,0-7,0.2-11.4,0.5
		c-12.1,1.1-24,3.4-35.6,6.8c-1.7,0.5-3.5,1-5.2,1.6c-14.7,4.9-24.7,13-30.5,25.1h0.4c5.8-11.9,15.7-20,30.2-24.8
		c1.7-0.6,3.4-1.1,5.2-1.6c11.6-3.4,23.5-5.7,35.5-6.8c4.4-0.4,8.1-0.5,11.3-0.5c9.7,0,15.2,1.5,16.4,4.6c1,2.5-1,6.2-6,10.9
		c-1,0.9-2,1.9-2.8,2.7c-3.4,3.3-6.6,6.8-9.6,10.5c-1.2,1.7-2.4,3.4-3.5,5.1h0.4c1.1-1.7,2.2-3.3,3.4-4.9c2.9-3.7,6.1-7.2,9.5-10.5
		C2374.4,513.7,2375.4,512.8,2376.4,511.9z"/>
	<path class="st1" d="M2157.8,297.9c-0.6,0.9-1.1,1.8-1.5,2.4c-5.6,7.9-12.2,14.9-19.6,22.5c-1,1-2,2.1-3.1,3.1
		c-6.1,6.2-12.5,12.6-16.3,20.2c-1.5,2.9-1.9,5.2-1.3,6.6c0.3,0.6,0.8,1.1,1.4,1.3c0.3,0.1,0.6,0.1,0.9,0.1c1.9-0.2,3.7-0.8,5.2-1.9
		c4.1-2.6,8-5.4,11.7-8.5c3.1-2.4,6.3-4.9,9.5-7.1c13.2-8.8,21.9-14.5,26-30.9c0.8-3.4,1.3-11.1-1.3-14.4c-0.8-1.1-2.2-1.7-3.5-1.6
		C2162.6,289.9,2159.8,294.6,2157.8,297.9z M2166.3,290.1c1.2,0,2.3,0.5,3,1.5c2.5,3.3,2,10.8,1.2,14.2c-4.1,16.2-12.7,22-25.9,30.7
		c-3.3,2.2-6.5,4.7-9.5,7.1c-3.7,3.1-7.6,5.9-11.7,8.5c-2.5,1.5-4.6,2.1-5.9,1.7c-0.6-0.1-1-0.5-1.2-1.1c-0.6-1.3-0.1-3.5,1.3-6.4
		c3.8-7.5,10.1-13.9,16.2-20.1c1-1.1,2.1-2.1,3.1-3.1c7.4-7.7,14.1-14.7,19.7-22.5c0.5-0.6,1-1.5,1.5-2.4c2-3.3,4.7-7.8,8-8
		C2166.1,290.1,2166.2,290.1,2166.3,290.1L2166.3,290.1z"/>
	<path class="st1" d="M2392.3,496.5c-3.2-6.9-16.4-8.4-26.8-8.4c-3.7,0-7.6,0.2-11.8,0.5c-12.6,1.1-25,3.5-37.1,7
		c-1.9,0.5-3.7,1.1-5.5,1.7c-11.5,3.8-20.3,9.3-27,16.9c-4.1,4.6-7.3,9.9-9.6,15.6h0.3c6.4-15.8,18.2-26.1,36.3-32.2
		c1.8-0.6,3.6-1.2,5.5-1.7c12.1-3.5,24.5-5.9,37-7c4.2-0.3,8.1-0.5,11.8-0.5c10.3,0,23.3,1.4,26.5,8.2c3.5,7.4-5,15.3-10.6,20.6
		c-1,0.9-1.8,1.7-2.6,2.5c-3.2,3-6.1,6.2-8.8,9.6c-0.1,0.2-0.2,0.3-0.4,0.5h0.4c0.1-0.1,0.1-0.2,0.2-0.3c2.7-3.4,5.6-6.6,8.8-9.6
		c0.7-0.8,1.6-1.6,2.6-2.5C2387.3,512.2,2395.9,504.2,2392.3,496.5z"/>
	<path class="st1" d="M2164.4,279.6c-4.8,1.2-9.1,7.9-12.5,13.3c-1.2,1.9-2.3,3.7-3.3,4.9c-5.5,6.9-11.4,13.4-17.6,19.6
		c-1.6,1.6-3.5,3.4-5.6,5.3c-6.2,5.7-13.8,12.8-16.2,19.3c-2,5.5-0.8,10.7,0.3,15.7c0.9,4.1,1.9,8.4,1.1,12.9
		c-0.5,2.8-2.1,5.5-3.9,8.3c-2.1,3.4-4.3,7-4.4,10.8c0,1.3,0.2,2.6,0.6,3.8c1.5,4.1,3,6,4.8,6s3.7-1.9,6.6-6.4
		c2.8-4.4,3.8-9.4,4.9-14.3c1.1-4.9,2.1-10,4.9-14.4c5.3-8.4,14.6-14.5,22.9-19.9c0.7-0.5,1.4-0.9,2.1-1.4
		c13.7-9.1,24.5-16.2,29.3-35.5c1.3-5.1,0.9-18.1-4.3-24.7C2172,279.9,2168.1,278.5,2164.4,279.6z M2173.7,283.3
		c4.7,6,5.6,18.6,4.2,24.3c-4.8,19.1-15.5,26.2-29.1,35.2c-0.7,0.4-1.4,0.9-2.1,1.4c-8.3,5.5-17.7,11.6-23,20.1
		c-2.8,4.5-3.9,9.6-5,14.5c-1,4.8-2.1,9.8-4.8,14.1c-1.9,3.1-4.2,6.2-6.2,6.2c-1.5,0-2.9-1.8-4.3-5.6c-0.4-1.2-0.6-2.4-0.6-3.6
		c0.1-3.7,2.3-7.2,4.4-10.6c1.8-2.9,3.5-5.7,4-8.5c0.8-4.5-0.2-8.9-1.1-13.1c-1.2-5.2-2.2-10.1-0.3-15.4c2.3-6.4,9.9-13.4,16-19.1
		c2.1-1.9,4-3.7,5.6-5.4c6.3-6.2,12.2-12.8,17.7-19.6c1-1.3,2.1-3.1,3.3-5c3.3-5.3,7.5-11.9,12.1-13c0.8-0.2,1.6-0.3,2.4-0.3
		C2169.7,279.8,2172.2,281.1,2173.7,283.3L2173.7,283.3z"/>
	<path class="st1" d="M2169.5,255.6c-2.6-3.8-4.9-4.3-7.3-4.8c-1.9-0.3-3.8-1.1-5.4-2.2l-0.2-0.2c-5.6-6.3-24.5-26.9-30.9-26.9
		c-0.7,0-1.3,0.3-1.7,0.8c-0.9,1.1-0.8,3.4,0.1,6.9c0.6,2.1,5.9,4.9,11.6,8c4.7,2.5,9.6,5.1,11.2,7.1c1.5,1.8,3.4,4.2,3.3,5
		c0,0.2-0.3,0.4-0.7,0.6c-1,0.5-2.5,1.2-1.7,4.7c0.6,2.4,2,4.8,3.5,7.1c1.3,1.9,2.4,4,3.1,6.2c1.4,5.4-7.5,15.4-13.4,22
		c-1.9,2.2-3.6,4.1-4.7,5.5c-4.3,5.7-9.6,11-14.8,16.1c-10.1,9.9-20.4,20.2-24.1,34.3c-5.5,21.1-6.6,39.8-3.2,55.5
		c1.8,8.4,7.9,20,13.8,20c3.7,0,6.4-4.4,8-13.1c6.2-33.6,23-44.8,39.4-55.6c14.4-9.6,28.1-18.6,34-42.1c2.2-8.9-1.2-22.5-5.6-30
		c-1.8-2.8-4.1-5.2-6.9-7.1c-2.2-1.5-4.1-3.4-5.7-5.5c-1.1-1.7-0.9-3.7-0.7-5.8C2170.6,259.8,2170.9,257.5,2169.5,255.6z
		 M2170.5,268.2c1.6,2.3,3.6,4.2,5.8,5.7c2.7,1.8,5,4.1,6.7,6.9c4.3,7.4,7.7,20.8,5.5,29.4c-5.8,23.2-19.3,32.2-33.6,41.6
		c-16.4,10.9-33.4,22.2-39.7,56.1c-1.5,8.2-4,12.5-7.2,12.5c-5,0-11.1-10.4-13-19.4c-3.3-15.6-2.2-34.1,3.2-55.1
		c3.6-13.9,13.9-24.1,23.9-33.9c5.2-5.1,10.6-10.4,14.9-16.1c1-1.4,2.7-3.3,4.6-5.4c6.4-7.1,15.1-16.9,13.5-22.7
		c-0.8-2.3-1.8-4.4-3.2-6.4c-1.4-2.3-2.9-4.6-3.4-6.9c-0.7-2.9,0.4-3.4,1.3-3.9c0.5-0.2,1-0.5,1.1-1.1c0.2-0.8-0.3-2-3.4-5.7
		c-1.7-2.1-6.7-4.7-11.5-7.3c-5-2.7-10.7-5.8-11.2-7.5c-1.1-4-0.7-5.6-0.3-6.2c0.3-0.3,0.7-0.5,1.1-0.5c4.8,0,18.8,13.7,30.3,26.6
		c0.1,0.2,0.2,0.2,0.2,0.2c1.7,1.3,3.6,2.1,5.7,2.4c2.4,0.5,4.4,0.9,6.9,4.5c1.2,1.7,1,3.7,0.8,5.9
		C2169.4,264,2169.2,266.3,2170.5,268.2z"/>
	<path class="st1" d="M2160.5,308.3L2160.5,308.3c-1.6,0-3.2,2-4.4,3.4c-0.3,0.3-0.5,0.6-0.7,0.8c-1.1,1.2-2.2,2.6-3.2,3.8
		c-0.7,0.8-1.3,1.6-2,2.5l-0.1,0.1c-2.2,2.6-3.1,4.3-2.7,5.2c0.2,0.4,0.5,0.6,0.9,0.6c0.1,0,0.2,0,0.3,0h0.1c4.4-0.1,8-4.1,9.7-6.5
		c1.5-2,2.6-4.3,3.3-6.7c0.1-0.5,0.4-2-0.3-2.8C2161.2,308.5,2160.8,308.3,2160.5,308.3z M2161.1,311.5c-0.6,2.4-1.7,4.6-3.2,6.5
		c-1.7,2.3-5.1,6.2-9.3,6.2l0,0.3v-0.3c-0.1,0-0.1,0-0.2,0c-0.4,0-0.5-0.2-0.5-0.3c-0.1-0.3-0.1-1.4,2.7-4.6l0.1-0.1
		c0.7-0.8,1.3-1.6,2-2.5c1-1.3,2.1-2.6,3.2-3.8c0.2-0.2,0.4-0.5,0.7-0.8c1-1.3,2.6-3.2,3.9-3.2l0,0c0.2,0,0.4,0.1,0.5,0.3
		C2161.3,309.9,2161.4,310.7,2161.1,311.5L2161.1,311.5z"/>
	<path class="st1" d="M2276.9,420.1c14.6-1.7,30.4-18.6,30.6-33c0.3-22-12.4-39.6-24.6-56.7c-2.1-2.9-4.2-5.9-6.3-8.8l-1.2-1.8
		c-5.8-8.3-12.3-17.7-14.4-27.9c-1.8-8.6-4.5-28.7-1.6-35.6c2.2-5.1,8.4-8,14.5-10.8c4.2-1.9,8.1-3.8,10.9-6.3l0.1-0.1
		c9.5-8.6,9.5-8.6,15.9-8.8c2-0.1,4.4-0.2,7.8-0.5c3.1-0.3,6.3-0.8,9.3-1.6c1-0.3,2-0.5,3-0.5c2,0,3.7,1.4,9.2,6.1
		c16.3,13.8,16,37.8,15.7,61c-0.4,29.2-0.8,59.4,32.3,68.9c4.5,1.3,9.1,2,13.7,2.1c12.4,0,23-5.5,30.6-16
		c11.1-15.4,14.1-39.4,7.4-59.8c-15.5-47-52.6-73.9-92.6-99.5c-36.3-23.3-70.8-29.7-100.4-33.9c-2-0.3-4-0.4-6-0.5
		c-12,0-17.7,6.1-24.9,13.8c-2.9,3.2-6,6.2-9.2,9.1c-4.1,3.6-9.2,6-14.2,8.4c-8.1,3.9-15.8,7.5-19,15.6
		c-6.7,17.2,9.8,30.5,24.5,42.3c6.8,5.5,13.2,10.6,16.9,15.8c14.9,20.4,10.4,54.9-3.1,74.3c-4.2,6-12.3,13.5-20.8,21.4
		c-14.1,13.1-30.1,28-33,40.5c-1.3,5.9-1,10,1.1,12.5c1.7,2.1,4.6,3.2,8.8,3.2c6.9,0,16.9-2.9,27.4-5.9c12.9-3.7,27.4-7.9,39.9-7.9
		c5.1-0.2,10.3,0.8,15,2.8c4.8,2.2,8.8,5.3,12.8,8.4c6.5,5,12.6,9.8,21.2,9.8C2275.1,420.3,2276,420.2,2276.9,420.1z M2240.4,401.6
		c-4.8-2-10-3-15.2-2.9c-12.5,0-27.1,4.2-40,7.9c-10.5,3-20.4,5.9-27.3,5.9c-4,0-6.8-1-8.4-3c-1.9-2.4-2.2-6.4-1-12.1
		c2.8-12.3,18.7-27.1,32.8-40.2c8.6-7.9,16.6-15.4,20.9-21.5c13.6-19.5,18-54.3,3.1-74.9c-3.8-5.2-10.2-10.4-17-15.9
		c-14.5-11.7-30.9-24.9-24.3-41.7c3.1-7.9,10.7-11.5,18.7-15.3c5-2.4,10.2-4.8,14.3-8.5c3.2-2.9,6.3-6,9.2-9.2
		c7.1-7.6,12.7-13.6,24.5-13.6c2,0,4,0.2,6,0.5c29.5,4.2,64,10.6,100.2,33.8c39.8,25.6,76.9,52.4,92.3,99.2
		c6.7,20.2,3.7,44-7.3,59.3c-7.5,10.3-17.9,15.8-30.1,15.8c-4.6,0-9.2-0.7-13.6-2c-14.6-4.2-23.9-12.9-28.3-26.6
		c-3.9-12.2-3.8-27.3-3.6-41.8c0.3-23.3,0.6-47.4-15.9-61.4c-7.9-6.7-8.1-6.8-12.6-5.6c-3,0.8-6.1,1.3-9.2,1.6
		c-3.4,0.3-5.8,0.4-7.8,0.5c-6.7,0.2-6.7,0.2-16.3,8.9l-0.1,0.1c-2.7,2.5-6.6,4.3-10.7,6.2c-6.1,2.9-12.5,5.8-14.8,11.1
		c-3.1,7.1-0.3,27.3,1.5,35.9c2.1,10.3,8.7,19.7,14.5,28.1l1.2,1.8c2,2.9,4.2,5.9,6.3,8.8c12.2,17,24.8,34.5,24.5,56.3
		c-0.2,14.1-15.7,30.8-30.1,32.5c-0.9,0.1-1.8,0.2-2.7,0.2c-8.5,0-14.5-4.7-20.9-9.7C2249.3,407,2245.2,403.8,2240.4,401.6
		L2240.4,401.6z"/>
	<path class="st1" d="M2268.3,480.7c-2.8,4.2-6.3,9.5-5.1,13.1c0.6,1.6,2,2.8,3.7,3.3c0.4,0.1,0.8,0.2,1.2,0.2c4.3,0,11-6.6,17-12.4
		c3.8-3.7,7.4-7.2,9.5-8.2c10.3-4.7,24.5-6.9,37-8.8c4.9-0.8,9.6-1.5,13.9-2.3c9.3-1.9,18.7-2.8,28.2-2.9
		c29.1,0,53.5,10.5,72.6,31.1c2.1,2.3,5.2,3.5,9.2,3.5c12.5,0,33.8-12.1,48.9-34.6c9-13.4,22.1-40.9,8.5-73.9
		c-5.4-13.2-13.5-19.4-25.5-19.4c-9.1,0-19.4,3.3-31.4,7.2c-14.8,4.8-31.5,10.1-49.5,10.1c-13.7,0.1-27.3-3.3-39.3-9.9
		c-38.4-20.5-39.5-57.9-36.2-88.1c1.3-11.8-0.8-21.1-6.1-26.9c-3.7-4.1-9-6.5-14.6-6.3c-11.1,0-24.9,8.6-29.9,25
		c-4.7,15.5,6.4,29.6,19.3,45.8c14.5,18.4,31,39.2,27.8,67c-1.6,13.8-6.6,27-13.5,35.4c-5.2,6.3-9.8,6.9-14.6,7.5
		c-3.7,0.5-7.5,0.9-12,3.8c-3.4,2.2-4.5,5.9-5.6,9.8c-0.6,2.8-1.7,5.4-3.3,7.8c-0.9,1.3-2.5,1.5-4.1,1.8c-2.2,0.4-4.7,0.8-6,3.7
		c-0.9,2,0.3,4.3,1.5,6.6c1,1.9,2,3.8,1.7,5.4C2271.3,476.3,2269.9,478.3,2268.3,480.7z M2270.4,469.2c-1.2-2.2-2.2-4.3-1.5-6
		c1.2-2.5,3.4-2.9,5.5-3.3c1.7-0.3,3.5-0.6,4.6-2.1c1.6-2.5,2.7-5.2,3.3-8c1.1-3.8,2.1-7.4,5.4-9.4c4.4-2.8,8.1-3.2,11.8-3.7
		c5-0.6,9.7-1.2,15-7.7c6.9-8.5,12-21.8,13.6-35.7c3.2-28-13.3-49-27.9-67.4c-12.8-16.2-23.8-30.1-19.2-45.3
		c4.9-16.1,18.4-24.6,29.3-24.6c5.4-0.1,10.5,2.1,14.1,6.1c5.1,5.7,7.2,14.9,5.9,26.4c-3.3,30.5-2.2,68.1,36.6,88.8
		c12.2,6.6,25.8,10,39.6,9.9c18.1,0,34.9-5.4,49.7-10.2c11.9-3.8,22.2-7.2,31.2-7.2c11.8,0,19.5,5.9,24.9,19
		c13.5,32.7,0.5,60-8.4,73.3c-14.4,21.5-35.9,34.3-48.3,34.3c-3.8,0-6.8-1.1-8.8-3.3c-19.2-20.8-43.8-31.3-73-31.3
		c-9.5,0.1-19,1-28.3,2.9c-4.3,0.8-9,1.6-13.9,2.3c-12.6,2-26.8,4.2-37.2,8.9c-2.3,1-5.7,4.4-9.7,8.3c-5.9,5.7-12.5,12.2-16.5,12.2
		c-0.3,0-0.7,0-1-0.2c-1.5-0.4-2.7-1.5-3.3-2.9c-1.1-3.3,2.3-8.4,5-12.5c1.6-2.5,3-4.6,3.3-6
		C2272.5,473.2,2271.4,471.2,2270.4,469.2L2270.4,469.2z"/>
	<path class="st1" d="M2416.5,491.5c-2-6.5-11-11.3-26.6-14.4c-10.3-2-20.8-3-31.2-3c-15.6,0-31.2,2.2-46.2,6.5
		c-2.1,0.6-4.2,1.2-6.2,1.9c-26.4,8.8-41.7,23.4-48.5,47.4h0.8c6.8-23.6,21.9-38,47.9-46.6c2-0.7,4.1-1.3,6.2-1.9
		c15-4.3,30.4-6.5,46-6.5c10.4,0,20.9,1,31.1,3c15.3,3,24.1,7.7,26,13.8c1.5,4.7-1,10.5-7.4,17.2c-6.6,6.9-13.3,13.9-19.3,21h1
		c5.9-6.9,12.4-13.7,18.8-20.4C2415.5,502.6,2418.1,496.5,2416.5,491.5z"/>
	<path class="st1" d="M2355.2,430.1c0.4,0.2,0.9,0.4,1.4,0.4c2,0,3.9-1.9,5.6-3.6c0.8-0.9,1.7-1.6,2.7-2.3c0.9-0.4,1.9-0.7,2.8-0.7
		c1.8,0,3.2,0.8,5,1.8c0.6,0.3,1.3,0.7,1.9,1c1.5,0.8,3.2,1.2,4.9,1.2c1.6-0.1,3.3-0.3,4.9-0.8c1.8-0.5,3.7-0.8,5.5-0.9h0.3
		c4.2,0,8,2.2,11.8,4.3c3.7,2.1,7.5,4.3,11.7,4.3c2,0,4.1-0.5,5.9-1.5c1.4-0.7,2.6-1.6,3.8-2.6c1.7-1.4,3.2-2.6,5.7-2.6
		c0.8,0,1.6,0.1,2.4,0.3c7.1,1.7,10.2,8.2,13.2,14.5c1.3,3,2.9,5.8,4.7,8.4c3.7,4.9,8.5,7.6,13.4,7.6h0.3c5-0.1,9.8-2.8,13.5-7.7
		c5-6.6,14.1-28.3,10.4-39c-0.9-3-3.3-5.3-6.4-6c-1-0.3-2.1-0.4-3.1-0.4c-3.2,0-5.6,1.4-8.4,3.1c-0.6,0.4-1.3,0.8-2,1.2
		c-5.7,3.2-11.3,3.9-17.2,4.6c-2.3,0.3-4.7,0.6-7.2,1c-2.6,0.5-5.1,1.3-7.5,2.4c-3.1,1.2-6.1,2.3-9.3,2.3c-2.3,0-4.5-0.6-6.5-1.6
		c-4.5-2.2-9.5-4.3-15-4.3c-1.8,0-3.7,0.2-5.4,0.7c-0.8,0.2-1.7,0.4-2.5,0.6c-3,0.9-6.1,1.4-9.2,1.6c-2.4,0-4.9-0.5-7.1-1.6l-1-0.4
		c-4.2-1.9-8.5-3.9-12.9-3.9c-2.4,0-4.8,0.6-6.9,1.8c-2.8,1.5-6.5,8-6.5,12.5C2352.7,427.4,2353.7,429.2,2355.2,430.1z
		 M2359.6,413.6c2-1.1,4.3-1.7,6.6-1.7c4.3,0,8.5,2,12.7,3.9l1,0.5c2.3,1.1,4.8,1.6,7.3,1.6c3.2-0.1,6.3-0.7,9.3-1.6
		c0.8-0.2,1.6-0.4,2.5-0.6c1.7-0.4,3.5-0.6,5.3-0.6c5.4,0,10.3,2,14.7,4.3c2.1,1.1,4.4,1.6,6.8,1.7c3.3,0,6.3-1.2,9.5-2.4
		c2.4-1,4.9-1.8,7.4-2.3c2.4-0.4,4.8-0.7,7.2-1c6-0.7,11.7-1.4,17.4-4.6c0.7-0.4,1.3-0.8,2-1.2c2.7-1.6,5.1-3,8.1-3c1,0,2,0.1,3,0.4
		c2.9,0.7,5.1,2.8,6,5.6c3.7,10.6-5.3,31.9-10.3,38.5c-3.6,4.8-8.2,7.4-13,7.5h-0.2c-4.8,0-9.4-2.6-13-7.4c-1.8-2.6-3.4-5.4-4.7-8.3
		c-3.1-6.4-6.2-13.1-13.6-14.8c-0.8-0.2-1.7-0.3-2.5-0.3c-2.7,0-4.2,1.3-6,2.8c-1.1,1-2.4,1.9-3.7,2.6c-1.7,0.9-3.7,1.4-5.6,1.4
		c-4,0-7.6-2-11.4-4.2c-3.8-2.1-7.7-4.3-12-4.3h-0.3c-1.9,0.1-3.8,0.4-5.7,0.9c-1.5,0.4-3.1,0.7-4.7,0.8c-1.6,0-3.2-0.4-4.7-1.2
		c-0.7-0.3-1.3-0.7-1.9-1c-1.7-1-3.3-1.9-5.2-1.9c-1.1,0-2.1,0.3-3.1,0.8c-1.1,0.6-2,1.4-2.8,2.4c-1.6,1.6-3.5,3.4-5.2,3.4
		c-0.4,0-0.8-0.1-1.2-0.3c-1.4-0.8-2.2-2.4-2.1-4C2353.4,421,2357.3,414.9,2359.6,413.6L2359.6,413.6z"/>
	<path class="st1" d="M2284,469.1c1.2,0.2,2.4,0.3,3.6,0.3c3.4,0,15.8-0.5,35.3-6.9c17.3-5.5,35.4-8.3,53.5-8.3
		c30,0,50,4.5,75.7,29.1c2,1.8,4.6,2.8,7.3,2.6c11.2,0,28.1-12.2,38.5-27.7c8.1-12.1,19.9-36.9,7.7-66.5
		c-5.2-12.8-11.8-14.5-18.2-14.5c-7.8,0-17.6,3.2-29,6.8c-15.3,4.9-32.6,10.5-51.9,10.5c-15,0.1-29.8-3.6-43-10.8
		c-43.1-23-43.7-65.8-40.3-95.9c1-9.3-0.4-16.7-4.1-20.8c-2.2-2.5-5.4-3.8-8.7-3.7c-8.2,0-18.5,6.7-22.4,19.5
		c-3.5,11.5,6.4,24.1,18,38.7c14.7,18.6,33,41.7,29.5,72.8c-1,8.7-3.4,17.2-7.1,25.1c-5.4,11.8-13.2,22.5-22.9,31.2
		c-5.3,4.5-10.9,8.6-16.9,12.2c-4.1,2.6-6.6,4.1-6.4,5.3C2282.2,468.4,2282.8,468.8,2284,469.1z M2288.8,462.9
		c6-3.6,11.7-7.6,16.9-12.2c9.7-8.8,17.5-19.4,22.9-31.3c3.7-8,6.1-16.5,7.1-25.2c3.6-31.2-14.8-54.4-29.5-73
		c-11.5-14.5-21.3-27-17.9-38.4c3.8-12.6,14-19.2,22-19.2c3.2-0.1,6.3,1.2,8.5,3.6c3.6,4,5,11.3,4,20.6
		c-3.3,30.3-2.7,73.2,40.5,96.3c13.3,7.2,28.1,10.9,43.2,10.8c19.3,0,36.7-5.6,52-10.5c11.3-3.6,21.1-6.8,28.9-6.8
		c6.2,0,12.7,1.7,17.9,14.3c12.1,29.5,0.4,54.1-7.7,66.2c-10.2,15.2-27.3,27.5-38.2,27.5c-2.6,0.1-5.1-0.8-7-2.5
		c-12.5-11.9-24.1-19.5-36.5-23.9c-10.7-3.7-22.5-5.3-39.5-5.3c-18.2,0-36.3,2.8-53.6,8.3c-19.4,6.4-31.8,6.9-35.2,6.9
		c-1.2,0-2.3-0.1-3.5-0.3c-1-0.3-1.6-0.6-1.6-1C2282.3,466.9,2285,465.2,2288.8,462.9L2288.8,462.9z"/>
	<path class="st1" d="M2310.3,270.9c-5.9,0-12.4,6-14.6,11.4c-1.4,3.6-0.3,9.7,2.9,16.3c3,6.3,7.1,11.1,10,12
		c0.4,0.1,0.9,0.2,1.4,0.2c0.5,0,1-0.1,1.5-0.3c3.8-1.3,3.8-3.7,3.6-8.9c-0.2-4.5-0.1-9,0.4-13.5c0.9-8-0.4-14.1-2.1-16
		C2312.6,271.2,2311.5,270.8,2310.3,270.9z M2314.9,288c-0.5,4.5-0.6,9.1-0.4,13.6c0.2,5.2,0.3,7.1-3.2,8.3c-0.8,0.3-1.7,0.3-2.5,0
		c-2.8-0.9-6.7-5.5-9.7-11.7c-3.1-6.5-4.2-12.4-2.9-15.9c2.1-5.2,8.3-11,14-11c1-0.1,2,0.3,2.7,1
		C2314.6,274.2,2315.8,280.2,2314.9,288L2314.9,288z"/>
	<path class="st1" d="M2443.9,430.9c1,0.4,1.9,0.9,2.8,1.4c0.4,0.2,0.7,0.4,1.2,0.7c3.9,2,7.6,4.4,11,7.2c1.5,1.3,2.7,1.9,3.8,1.9
		c1.5,0,2.4-1.3,3.1-2.5c2.7-4.6,3.6-8.1,4.7-14.2c0.2-0.9,0-1.8-0.5-2.6c-0.8-1-2.4-1.1-4.7-0.5c-7,1.9-11.7,2.8-17.7,4
		c-1,0.2-2.1,0.4-3.3,0.6c-1.1,0.1-1.9,0.9-2.1,2C2442.3,429.2,2442.4,430.2,2443.9,430.9z M2444.6,427.4c1.1-0.2,2.2-0.4,3.2-0.6
		c6-1.1,10.7-2,17.7-4c0.7-0.2,1.5-0.3,2.3-0.4c0.7-0.1,1.3,0.2,1.8,0.6c0.4,0.6,0.5,1.3,0.3,2c-1.1,6.1-2,9.5-4.6,14
		c-0.8,1.3-1.5,2.2-2.6,2.2c-0.9,0-2-0.6-3.4-1.7c-3.5-2.8-7.2-5.2-11.1-7.2c-0.4-0.2-0.8-0.4-1.2-0.6c-0.9-0.5-1.9-1-2.9-1.4
		c-0.8-0.3-1.3-0.9-1.2-1.4C2443.1,428.1,2443.8,427.5,2444.6,427.4L2444.6,427.4z"/>
	<path class="st1" d="M2342.6,442.5c1.3,0,2.6-0.1,3.8-0.3c11.3-1.2,22.6-1.8,33.9-1.9c5.9,0,11.8,0.2,17.7,0.8
		c25.4,2.7,47.3,14.8,57.9,25.6c1.8,1.9,4.3,3,6.9,3c5.9,0,13.1-5.1,19.9-14c11.8-15.6,15.4-45.6,9.5-57.3c-1.6-3.1-3.7-4.8-6.3-4.8
		c-0.2,0-0.4,0-0.6,0c-4.6,0.5-11.1,2.4-19.2,4.8c-15.3,4.5-36.2,10.6-58.9,11c-19.4,0.3-41.5-7.4-49.1-11c-2.5-1.2-4.1-1.7-5.2-1.7
		c-2.2,0-2.3,2.1-2.5,5.7c-0.1,3.7-0.6,7.5-1.7,11.1c-2,6.3-4.5,12.5-7.4,18.5c-2.3,4.9-3.7,7.9-2.7,9.4
		C2339.2,442.1,2340.4,442.5,2342.6,442.5z M2341.7,432c2.9-6,5.4-12.2,7.4-18.5c1.1-3.6,1.6-7.4,1.7-11.1c0.2-3.5,0.2-5.4,2.2-5.4
		c1,0,2.6,0.5,5,1.7c7.4,3.6,28.9,11.1,48.1,11.1c0.4,0,0.8,0,1.1,0c22.7-0.4,43.7-6.5,58.9-11c8.1-2.4,14.6-4.3,19.2-4.7
		c2.7-0.3,5,1.3,6.6,4.6c5.8,11.7,2.3,41.4-9.5,57c-6.7,8.8-13.8,13.9-19.6,13.9c-2.5,0-4.9-1-6.6-2.9c-10.6-10.8-32.6-23-58.1-25.7
		c-5.9-0.6-11.8-0.9-17.8-0.8c-11.3,0.1-22.7,0.7-33.9,1.9c-1.3,0.2-2.5,0.2-3.8,0.3c-2,0-3.1-0.3-3.6-1.1
		C2338.1,439.7,2339.4,436.8,2341.7,432L2341.7,432z"/>
	<path class="st1" d="M2317.9,455.1c1.3,0,2.5-0.3,3.7-0.7c15.5-5.4,33.4-8,54.8-8c26.7,0,53.1,2.4,83.2,32c0.9,0.9,2.1,1.3,3.4,1.3
		l0,0c8.4,0,23.9-16.1,28.5-25.8c0.4-0.9,0.9-1.8,1.4-2.8c5.9-12,15.7-32.1,5.6-56.5c-4-9.7-7.7-9.7-11-9.7c-6.6,0-15.9,3-26.6,6.4
		c-15.8,5.1-33.8,10.9-54.3,10.9c-17.5,0-31.7-3.2-45.9-10.4c-2.2-1.1-4.3-2.3-6.2-3.4c-3.8-2.2-6.7-3.9-8.6-3.9
		c-1.5,0-2.2,1-2.2,3.2c0,0.3,0,0.9,0.1,1.6c2,21-6.1,40.5-24.1,58.1c-3.2,3.1-4.5,5.3-4,6.6
		C2315.8,454.8,2316.6,455.1,2317.9,455.1z M2319.8,447.8c11.6-11.3,19.2-23.6,22.6-36.6c1.9-7.1,2.4-14.5,1.6-21.8
		c-0.1-0.7-0.1-1.3-0.1-1.6c0-2.6,1.1-2.8,1.9-2.8c1.8,0,4.9,1.8,8.5,3.8c1.9,1.1,4,2.3,6.2,3.4c14.3,7.2,28.5,10.5,46.1,10.5
		c20.5,0,38.5-5.8,54.4-10.9c10.7-3.5,20-6.4,26.5-6.4c3.2,0,6.8,0,10.7,9.5c10,24.2,0.2,44.2-5.6,56.2c-0.5,1-0.9,1.9-1.4,2.8
		c-4.6,9.6-19.9,25.6-28.2,25.6c-1.2,0-2.3-0.4-3.1-1.2c-14-13.7-28.4-22.7-44.2-27.5c-14-4.3-27.1-4.6-39.2-4.6
		c-21.5,0-39.4,2.6-54.9,8c-1.2,0.4-2.4,0.7-3.6,0.7c-0.7,0-1.7-0.1-2-0.8C2315.6,453.3,2315.8,451.7,2319.8,447.8z"/>
	<path class="st1" d="M2248.6,342.1c-0.5-0.6-1.2-0.9-2-1c-1.5,0-2.6,2-4.3,4.9c-2.2,4.2-4.9,8.1-8,11.6l-1.2,1.3
		c-4.6,4.9-6.7,7.1-6.2,8.3c0.2,0.5,0.9,0.8,2.3,0.8c1.9-0.1,3.8-0.3,5.7-0.6c1.2-0.2,2.4-0.2,3.5-0.2c9.6,0,17.6,5.4,23.4,9.3
		c3.4,2.3,6.1,4.1,8,4.1c0.8,0,1.5-0.3,2-1C2278,371.7,2256.6,349.3,2248.6,342.1z M2271.4,379.2c-0.4,0.5-0.9,0.8-1.5,0.7
		c-1.8,0-4.4-1.8-7.7-4c-5.9-4-13.9-9.4-23.7-9.4c-1.2,0-2.4,0.1-3.6,0.3c-1.9,0.3-3.7,0.5-5.6,0.6c-1.1,0-1.7-0.2-1.8-0.5
		c-0.4-0.9,2.2-3.6,6.1-7.7l1.2-1.3c3.2-3.5,5.9-7.4,8.1-11.7c1.5-2.8,2.6-4.7,3.8-4.7c0.6,0.1,1.2,0.4,1.6,0.9
		C2258.2,351.4,2276.8,372.2,2271.4,379.2L2271.4,379.2z"/>
	<path class="st1" d="M2248.8,351.3c-3.9,0-8.8,6.1-8.9,9c-0.1,1,0.7,1.8,1.7,1.9c0.1,0,0.2,0,0.3,0c5.7,0.1,11.7,3.7,16.1,6.3
		c2.6,1.6,4.5,2.7,5.6,2.7l0,0c0.3,0,0.6-0.1,0.8-0.3c0.3-0.4,0.4-0.8,0.3-1.3c-0.4-5.3-10.5-15.9-14.6-18
		C2249.8,351.4,2249.3,351.3,2248.8,351.3z M2264,369.6c0,0.5-0.1,0.6-0.1,0.7c0,0-0.1,0.1-0.3,0.1l0,0c-0.9,0-2.9-1.2-5.2-2.6
		c-4.5-2.7-10.6-6.3-16.5-6.5c-0.9,0-1.3-0.4-1.3-1.1c0-2.6,4.6-8.2,8.1-8.2c0.4,0,0.7,0.1,1.1,0.2
		C2254.3,354.5,2263.6,364.8,2264,369.6L2264,369.6z"/>
	<path class="st1" d="M2235.1,251.1L2235.1,251.1c1,0,1.7-1.3,2.4-4.4c2.8-11.3,11.9-26.2,26.1-34.1c14.4-8,24-10.1,29.1-11.2
		c2.6-0.6,3.8-0.8,4.2-1.5c0.1-0.3,0.1-0.7-0.1-0.9c-1-1.8-18.8-11.8-44.4-13.8l-1.1-0.1c-2.3-0.2-4.3-0.4-6.2-0.4
		c-6.7,0-12.1,1.9-24.7,12.5c-2,1.7-4,3.2-6,4.7c-6.1,4.7-11.3,8.7-11,13.3c0.3,3.5,3.7,7,10.9,11c8,4.4,12.8,13.1,16,18.9
		C2232.5,248.7,2233.8,251.1,2235.1,251.1z M2214.6,225.9c-7-3.9-10.5-7.4-10.8-10.7c-0.3-4.4,4.9-8.4,10.9-13c2-1.5,4-3.1,6-4.8
		c12.5-10.6,17.8-12.4,24.4-12.4c1.9,0,3.9,0.2,6.2,0.4l1.1,0.1c25,2,43.2,12,44.2,13.7c0.2,0.3,0.2,0.5,0.1,0.6
		c-0.2,0.5-1.6,0.8-3.9,1.3c-5.2,1.1-14.8,3.2-29.2,11.3c-14.3,8-23.5,23-26.3,34.3c-0.7,2.8-1.4,4.1-2.1,4.1l0,0
		c-1.1,0-2.5-2.6-4.4-5.9C2227.5,239.1,2222.6,230.3,2214.6,225.9L2214.6,225.9z"/>
	<path class="st1" d="M2237.2,270.1c1,0,1.6-1.2,2.1-3.6c2.9-15.2,9.1-36.7,29.8-48.2c7-3.8,14.4-6.7,22.2-8.6
		c1.9-0.7,3.7-1.6,5.3-2.9c2.3-1.5,4.7-3.1,6.8-3.1c0.2,0,0.5,0,0.7,0.1c1.1,0.3,2.2,0.8,3,1.6c0.9,0.9,2,1.4,3.2,1.5
		c1.4,0,2.8-0.8,3.4-2.1c0.7-1,1.3-1.9,3.2-1.7c1.9,0.2,2.9,1.6,3.9,3.1c0.7,1.1,1.5,2,2.6,2.7c1.1,0.6,2.3,0.9,3.5,0.9
		c0.7,0.1,1.4-0.2,1.9-0.7c0.3-0.6,0.4-1.2,0.2-1.9c-0.7-2.6-6.3-5-10-6.6c-1.1-0.5-2-0.9-2.6-1.2c-5.5-2.9-11-5.4-15.6-7.4
		c-19.6-8.6-37.4-13.8-54.5-16c-1.7-0.2-3.4-0.4-5.1-0.4c-8.4,0-15,3.7-28,15.8c-3.2,3-6.5,5.5-9.7,8c-7.1,5.5-12.7,9.9-12.6,15.4
		c0.1,4.3,3.9,8.9,11.8,14.5c12.8,9,21.3,22.6,27,31.6C2233.2,266.4,2235.5,270.1,2237.2,270.1z M2203,228.9
		c-7.9-5.5-11.6-10-11.7-14.3c-0.1-5.3,5.4-9.6,12.5-15.1c3.2-2.5,6.5-5,9.7-8c12.9-12,19.4-15.7,27.7-15.7c1.7,0,3.4,0.1,5.1,0.4
		c17.1,2.2,34.9,7.4,54.4,15.9c4.6,2,10.1,4.5,15.6,7.4c0.6,0.3,1.6,0.7,2.7,1.2c3.6,1.6,9.1,4,9.8,6.4c0.2,0.5,0.2,1.1-0.1,1.6
		c-0.4,0.4-1,0.6-1.6,0.6c-1.2,0-2.3-0.3-3.3-0.9c-1-0.7-1.9-1.6-2.5-2.6c-1.1-1.5-2.2-3.1-4.2-3.2c-2.1-0.2-2.8,0.9-3.5,1.9
		c-0.6,1.2-1.8,2-3.1,2c-1.1-0.1-2.2-0.6-3-1.4c-0.9-0.8-2-1.4-3.2-1.7c-0.3,0-0.5-0.1-0.8-0.1c-2.3,0-4.7,1.6-7,3.2
		c-1.6,1.2-3.3,2.2-5.2,2.8c-7.7,1.9-15.2,4.8-22.2,8.6c-20.9,11.6-27.1,33.2-30,48.4c-0.4,2.3-1,3.4-1.8,3.4
		c-1.5,0-3.9-3.8-7.2-9.1C2224.4,251.6,2215.9,238,2203,228.9L2203,228.9z"/>
	<path class="st1" d="M2278,408.6c7.9-1.1,14.7-6.1,18.1-13.2c3.2-6.5,4.9-17.6-4.9-33.4c-4.2-6.8-8.8-13.6-13.2-20.2
		c-12.7-18.8-24.7-36.7-29.6-54.5c-5.6-20.2-1.1-36.9,14.2-52.4c13.2-13.5,30.7-21.2,47.9-21.2c12.9,0,24.5,4.6,32.5,12.8
		c8.8,9.1,13.2,22.4,12.8,38.4c-0.1,3.7-0.3,7.6-0.5,11.7c-0.7,14.5-1.4,30.9,0.9,44.6c2.7,15.7,9.1,25.4,19.5,29.7
		c5,2.1,10.3,3.3,15.8,3.4c8.7,0.1,16.8-4.1,21.8-11.2c9.2-12.4,11.4-33.7,5.5-52.9c-12.7-41.3-43.1-65.9-88.1-92.3
		c-34.2-20-63.1-26.2-89.2-29.9c-1.8-0.3-3.7-0.4-5.5-0.4c-10.9,0-16.1,5.6-22.7,12.6c-2.6,2.9-5.4,5.7-8.4,8.3
		c-3.1,2.6-6.4,5-9.8,7c-4.6,2.8-8.6,5.3-12.9,11.8c-8.7,13,2.9,20.9,15.2,29.4c6.5,4.4,13.2,9.1,16.8,14.5
		c22.6,34.3,13.5,70.8-2.6,93.6c-4.6,6.5-11.3,12.7-18.4,19.2c-8.7,8-17.7,16.2-22.8,25.4c-2.2,4-2.8,6.6-1.9,8.2
		c0.7,1.1,2.2,1.7,4.5,1.7l0,0c4.2,0,11-1.8,18.8-3.8c10.9-2.9,24.6-6.4,36.6-6.4c6.4,0,11.8,1,16.2,3c4.4,2,8.1,4.9,11.7,7.7
		c5.9,4.6,11.5,8.9,19.4,8.9C2276.3,408.7,2277.1,408.7,2278,408.6z M2244.6,391.8c-4.5-2-9.9-3-16.4-3c-12.1,0-25.7,3.6-36.7,6.4
		c-7.8,2-14.5,3.8-18.7,3.8l0,0c-2.3,0-3.6-0.5-4.3-1.5c-0.9-1.5-0.2-4,1.9-7.9c5.1-9.1,14.1-17.4,22.7-25.3
		c7.1-6.5,13.8-12.7,18.5-19.2c9.3-12.9,14.8-28.2,16.1-44c1.3-17.7-3.3-34.5-13.5-49.9c-3.6-5.5-10.4-10.1-16.9-14.6
		c-12.2-8.3-23.6-16.2-15.1-28.9c4.3-6.5,8.3-8.9,12.8-11.7c3.5-2,6.8-4.4,9.9-7.1c2.9-2.6,5.7-5.4,8.4-8.4
		c6.5-7,11.7-12.5,22.4-12.5c1.8,0,3.7,0.1,5.5,0.4c26.1,3.7,54.9,9.9,89.1,29.9c44.9,26.3,75.3,50.9,88,92.1
		c5.9,19.1,3.7,40.3-5.4,52.6c-4.9,7-13,11.1-21.5,11c-5.4-0.1-10.7-1.3-15.6-3.4c-10.3-4.2-16.7-13.8-19.3-29.5
		c-2.3-13.6-1.6-30.1-0.9-44.6c0.2-4.1,0.4-7.9,0.5-11.7c0.5-16.2-4-29.5-12.8-38.7c-8.1-8.3-19.7-12.9-32.8-12.9
		c-17.3,0-34.9,7.8-48.1,21.3c-8.1,8.3-13.1,16.8-15.3,26.1c-2,8.3-1.6,17,1.1,26.7c5,17.9,17,35.7,29.7,54.6
		c4.4,6.6,9,13.4,13.2,20.1c9.7,15.6,8,26.6,4.9,33.1c-3.4,7.1-10.1,12-17.9,13c-0.8,0.1-1.7,0.1-2.5,0.1c-7.8,0-13.3-4.3-19.1-8.9
		C2252.7,396.8,2249,393.9,2244.6,391.8L2244.6,391.8z"/>
	<path class="st1" d="M2285.2,394.9c2.9-2.1,4.7-5.2,5-8.8c1.3-10.9-8.3-26.7-17-36.9c-10.8-12.8-21.5-26.5-26.7-39.7
		c-0.5-1.6-0.9-3.2-1.2-4.8c-1.7-7.9-4.5-21-8.6-21c-0.4,0-0.8,0.1-1.1,0.3c-1.7,1-2.2,3-1.5,6c0.7,2.7,1.7,5.4,2.9,7.9
		c1.2,2.7,2.2,5,2.2,6.3c0,3.4-1.6,4.9-3.2,6.4c-1.4,1.1-2.4,2.6-2.9,4.3c-0.6,2.6,0.5,4.6,1.6,6.5c1,1.8,2,3.6,1.7,5.9
		c-0.6,4.3-14.2,19.9-26.3,33.6c-10,11.4-18.6,21.2-18.4,23c0,0.1,0.1,0.2,0.2,0.3c0.8,0.7,2.3,1,4.6,1l0,0c3.6,0,8.5-0.8,14.3-1.7
		c7-1.1,14.9-2.4,21.7-2.4c5.4,0,9.4,0.8,12.2,2.3c1.6,0.9,3.3,1.9,5.2,2.9c8.2,4.8,18.5,10.7,27.2,10.7
		C2279.9,397.5,2282.8,396.6,2285.2,394.9z M2244.8,383.5c-2.9-1.6-7-2.4-12.4-2.4c-6.9,0-14.8,1.3-21.8,2.4
		c-5.7,0.9-10.7,1.7-14.2,1.7l0,0c-2.2,0-3.6-0.3-4.4-0.9c0,0,0,0,0-0.1c-0.1-1.7,8.9-12,18.4-22.8c12.1-13.8,25.8-29.4,26.4-33.8
		c0.3-2.5-0.7-4.3-1.7-6.1c-1.1-1.9-2.1-3.8-1.5-6.3c0.4-1.7,1.4-3.1,2.8-4.2c1.6-1.5,3.2-3.1,3.3-6.6c0-1.4-1-3.8-2.2-6.5
		c-1.2-2.5-2.2-5.2-2.9-7.9c-0.6-2.9-0.2-4.8,1.4-5.7c0.3-0.2,0.6-0.3,1-0.3c3.8,0,6.7,13.5,8.3,20.7c0.3,1.6,0.7,3.3,1.2,4.9
		c5.3,13.3,16,27,26.8,39.8c8.6,10.2,18.2,25.9,16.9,36.7c-0.3,3.4-2.1,6.5-4.9,8.5c-2.4,1.7-5.2,2.5-8.1,2.5
		c-8.6,0-18.8-5.9-27-10.7C2248.1,385.3,2246.3,384.3,2244.8,383.5L2244.8,383.5z"/>
	<path class="st1" d="M2281.5,381.1c1-9.1-8.8-23.4-13.6-28.8c-6.4-7.3-12.5-14.9-18.1-22.9c-3.8-5.3-6-8.2-7.3-8.2
		c-0.9,0-1.5,1.2-1.8,4.2c-2.4,22.5-16.9,34.6-25.6,41.9c-3.8,3.2-6.3,5.3-6.4,7c0,0.5,0.2,1,0.5,1.4c0.8,0.8,2,1.2,4,1.2
		c2.7-0.1,5.4-0.5,8-1.1c4.4-0.9,8.9-1.5,13.4-1.6c6.4,0,11.6,1.6,15.8,4.9c6,4.6,14.8,9.6,21.7,9.6l0,0c2.3,0.1,4.5-0.6,6.4-1.9
		C2280.1,385.5,2281.3,383.3,2281.5,381.1z M2271.9,388.4L2271.9,388.4c-6.8,0-15.6-4.9-21.5-9.5c-4.3-3.3-9.6-5-16-5
		c-4.5,0.1-9,0.7-13.5,1.6c-2.6,0.6-5.3,0.9-7.9,1.1c-1.8,0-3-0.4-3.7-1.1c-0.3-0.3-0.5-0.7-0.4-1.1c0.1-1.6,2.7-3.8,6.3-6.8
		c8.7-7.3,23.3-19.5,25.7-42.1c0.3-2.7,0.7-3.9,1.4-3.9c1.2,0,3.4,3,7.1,8.1c5.7,7.9,11.7,15.6,18.2,22.9
		c4.8,5.4,14.5,19.6,13.5,28.6c-0.1,2.2-1.3,4.2-3,5.5C2276.3,387.8,2274.1,388.4,2271.9,388.4L2271.9,388.4z"/>
	<path class="st1" d="M2375.8,290.2c-1.1,17.3,3.8,29.1,8.8,34.5c2.3,2.5,4.8,3.8,7.1,3.8l0,0c3.2,0,5.6-2.5,6.8-7.1
		c7.5-29.6-18.1-60.7-21.3-63.3c-0.9-0.7-1.5-0.8-1.9-0.4c-0.7,0.8-0.5,3.4-0.1,8.2C2376,274,2376.2,282.1,2375.8,290.2z
		 M2375.7,258.1c0-0.1,0.1-0.1,0.2-0.1c0.2,0,0.4,0.1,1,0.5c3.1,2.6,28.6,33.5,21.1,62.8c-1.1,4.3-3.3,6.7-6.3,6.7l0,0
		c-2.1,0-4.5-1.3-6.7-3.6c-4.9-5.3-9.8-17-8.7-34.1c0.5-8.1,0.3-16.3-0.6-24.4C2375.4,261.7,2375.1,258.7,2375.7,258.1L2375.7,258.1
		z"/>
	<path class="st1" d="M2367.2,289.2c-1.3,16.8,2,30.3,9.3,38.2c3.8,4.1,8.5,6.4,13.2,6.4l0,0c6.7,0,12-4.6,13.6-11.8
		c4.6-21-2.5-39.9-9.4-52.1c-8.1-14.3-18.4-24.4-23.3-27.7c-1.8-1.2-3.1-2-3.9-2c-0.3,0-0.5,0.1-0.7,0.3c-0.6,0.7-0.4,2.8,0.1,6.8
		C2368.1,261.2,2368.4,275.3,2367.2,289.2z M2366.3,240.7c0.1-0.1,0.3-0.2,0.4-0.2c0.7,0,2,0.8,3.7,1.9c11.2,7.5,41,41.5,32.6,79.4
		c-1.6,7-6.8,11.6-13.3,11.6c-4.6,0-9.2-2.2-12.9-6.3c-7.2-7.8-10.5-21.3-9.2-37.9c1.2-14,0.9-28.1-1-42
		C2366.1,243.5,2365.8,241.3,2366.3,240.7L2366.3,240.7z"/>
	<path class="st1" d="M2360.9,290.3c-1.3,20.8,2.7,37.3,11.2,46.4c4.4,4.7,9.8,7.2,15.5,7.2l0,0c10.9,0,20.2-8.8,23-22
		c4.2-19.4,0.6-38.5-10.7-56.8c-11.5-18.5-27.4-30.5-35.8-36c-4.3-2.8-6.2-4-6.9-3.1c-0.6,0.7-0.2,2.7,0.6,6.7
		C2359.4,241.3,2362.8,259.4,2360.9,290.3z M2357.4,226.2c0.1-0.1,0.2-0.2,0.4-0.2c0.9,0,2.8,1.3,6,3.3
		c28.2,18.3,55.2,52.2,46.4,92.4c-2.8,13-11.9,21.7-22.7,21.7c-5.6,0-10.9-2.4-15.2-7.1c-8.5-9-12.4-25.4-11.1-46.1
		c1.9-31-1.5-49-3.2-57.7C2357.4,229,2356.9,226.8,2357.4,226.2L2357.4,226.2z"/>
	<path class="st1" d="M2233.8,221c3.1,0,5.4-3,7.8-7.5c4.2-7.9,12.9-11.7,17.6-13.8c2.4-1,3.3-1.4,3.2-2.1c-0.1-0.5-0.7-0.8-4-1
		c-9.8-0.7-31.7,8.7-34.3,15.7c-0.6,1.5-0.1,3.3,1.3,4.3C2229.2,219.7,2231.7,221,2233.8,221L2233.8,221z M2224.9,212.6
		c2.3-6.4,22.7-15.2,32.5-15.2c0.3,0,0.7,0,1,0c1,0,2.1,0.2,3.1,0.4c-0.8,0.5-1.7,0.9-2.6,1.2c-4.8,2.1-13.7,6-18,14.1
		c-2.7,5.1-4.7,7.1-7.1,7.1c-1.9,0-4.3-1.3-7.9-4.3C2224.8,215.2,2224.4,213.8,2224.9,212.6L2224.9,212.6z"/>
	<path class="st1" d="M2243.4,220.6c7.5-13.7,21.3-18.5,32.4-21.1c1.1-0.3,1.2-0.8,1.1-1.1c-0.3-2.2-10.7-6.5-26.2-6.5
		c-1.8,0-3.6,0.1-5.3,0.2c-7.1,0.4-23.9,10.3-29.9,17.7c-1.6,1.9-2.3,3.5-2.1,4.7c0.4,3,3.1,4.4,6.3,6c3.3,1.7,7.1,3.5,8.9,7.9
		c1.1,2.5,2.5,3.8,4.2,3.8C2235.6,232.2,2239.2,228.3,2243.4,220.6z M2229.1,228.1c-1.9-4.6-5.8-6.5-9.2-8.2c-3-1.5-5.6-2.8-6-5.5
		c-0.1-1,0.5-2.5,2-4.3c6-7.3,22.5-17.1,29.5-17.5c1.8-0.1,3.6-0.2,5.3-0.2c15.3,0,25.5,4.2,25.7,6c0,0.3-0.4,0.4-0.7,0.5
		c-11.2,2.7-25.1,7.5-32.7,21.4C2236.6,231.9,2231.9,234.7,2229.1,228.1z"/>
	<path class="st1" d="M2388.7,315.3L2388.7,315.3c0.6,0,1.1-0.4,1.5-1.2c2.1-4,2.1-18-3.6-26.5c-0.7-1.1-1.8-1-2.6,0.4
		c-2.1,3.7-3,15.4,2.8,25.6C2387.4,314.8,2388,315.3,2388.7,315.3z M2384.7,288.5c0.3-0.5,0.6-0.8,0.8-0.8c0.2,0,0.4,0.2,0.5,0.4
		c5.5,8.1,5.6,21.9,3.6,25.7c-0.3,0.5-0.6,0.8-0.8,0.8c-0.3,0-0.8-0.4-1.2-1.2C2381.9,303.5,2382.7,291.9,2384.7,288.5z"/>
	<path class="st1" d="M2275.9,434.6c16.4-1.9,36-21.4,41.3-36.3c9.1-25.9-7.1-46.8-22.7-67c-15.1-19.5-29.4-37.9-22.5-60.3
		c6-19.5,25.6-30,40.9-30c8.3,0,15.4,2.9,20.1,8.2c5.6,6.3,7.8,15.9,6.4,27.7c-4.9,40.7-6.4,85.1,38.9,98.2c5,1.5,10.1,2.2,15.3,2.3
		c19.1,0,31.3-10.9,38.1-20.1c13.1-17.6,17.7-43.9,11.4-65.5c-5.4-18.3-16-36-32.4-54.2c-24.4-27-57.7-50.3-101.6-71.1l-1.9-0.9
		c-18.5-8.8-37.6-17.8-57.8-22.8c-1.2-0.3-2.5-0.6-3.9-1c-6.2-1.7-14-3.7-20.6-3.7c-2.3-0.1-4.6,0.3-6.8,1c-2.9,1-4.5,3-6,4.9
		c-1.1,1.5-2.5,2.9-4.1,3.9c-1.8,0.9-3.7,1.7-5.6,2.4c-3.7,1.4-7.6,2.9-8.8,4.4c-2.4,2.8-1.7,4.4-1.1,6c0.6,1.2,0.7,2.6,0.3,3.9
		l-0.4,1.3c-3.3,9.8-3.3,9.8-11.1,12.1c-1.5,0.4-3.3,1-5.5,1.7c-6.4,2-9,5.1-11.5,8.1c-1.9,2.6-4.4,4.7-7.2,6.3c-0.1,0-0.2,0-0.3,0
		c-4,0-34.1,2-36.4,9.4c-0.6,2,0.7,4.2,4,6.4c4.1,2.9,7.3,3.2,9.3,3.2c1,0,1.9-0.1,2.7-0.2c0.7-0.1,1.4-0.1,2.1-0.1
		c2.4,0,4.9,0.7,8.2,9c0.8,2,1.5,3.7,2,5.1c2.6,6.8,2.7,6.9,9.3,9.7c1.6,0.7,3.7,1.6,6.3,2.8c8.5,3.9,10.3,8.4,12.5,14
		c1.3,3.6,3,7,5,10.2c2.6,3.8,5.6,7.3,8.9,10.5c5.4,5.6,10.5,10.9,12.1,19.8c2.8,15.4-5.5,30-14.9,43.6c-4.6,6.6-14,14.2-23.9,22.3
		c-16.9,13.8-36,29.4-36.1,43.8c0,8.2,2.1,14.6,6.3,18.8c4.6,4.6,11.6,6.9,21.3,6.9c14.2,0,31.6-4.8,46.9-9
		c12.1-3.3,22.5-6.2,29.2-6.2c1.3,0,2.6,0.1,3.8,0.5c6.4,1.9,11.5,6,16.5,9.9c6.6,5.2,12.7,10.2,21.6,10.2
		C2274,434.8,2275,434.7,2275.9,434.6z M2235.3,413.9c-1.3-0.4-2.7-0.5-4-0.5c-6.8,0-17.3,2.9-29.4,6.2c-15.3,4.2-32.7,9-46.7,9
		c-9.6,0-16.4-2.2-20.8-6.6c-4.1-4.1-6.1-10.2-6.1-18.3c0.1-14.1,19.1-29.6,35.8-43.2c10-8.1,19.4-15.8,24.1-22.5
		c9.5-13.7,17.9-28.5,15.1-44.2c-1.7-9.1-6.8-14.5-12.3-20.2c-3.2-3.2-6.2-6.7-8.8-10.4c-2-3.1-3.7-6.5-4.9-10
		c-2.3-5.8-4.1-10.4-12.9-14.5c-2.6-1.2-4.7-2.1-6.3-2.8c-6.4-2.7-6.4-2.7-8.9-9.3c-0.5-1.4-1.2-3.1-2-5.1c-3.2-7.9-5.7-9.5-9-9.5
		c-0.7,0-1.4,0.1-2.1,0.1c-0.8,0.1-1.7,0.2-2.6,0.2c-2.1,0-4.9-0.3-8.8-3.1c-3-2.1-4.2-3.9-3.7-5.6c2-6.4,30.1-8.9,35.7-8.9
		c0.1,0,0.2,0,0.3,0l0.1-0.4l0.2,0.3c3-1.6,5.6-3.8,7.6-6.5c2.6-3.1,5-5.9,11.1-7.9c2.2-0.7,4-1.2,5.5-1.7c8-2.3,8.1-2.4,11.6-12.6
		l0.4-1.3c0.5-1.4,0.4-3-0.3-4.4c-0.6-1.5-1.1-2.8,0.9-5.2c1.1-1.3,5-2.8,8.5-4.1c2-0.7,3.9-1.5,5.7-2.5c1.7-1.1,3.1-2.5,4.3-4.1
		c1.6-1.9,3-3.7,5.7-4.7c2.1-0.7,4.4-1,6.6-1c6.5,0,14.2,2,20.4,3.7c1.4,0.4,2.7,0.7,3.9,1c20.1,5,39.2,14,57.6,22.7l1.9,0.9
		c43.9,20.7,77.1,43.9,101.4,70.9c16.3,18.1,26.9,35.7,32.2,53.9c6.3,21.3,1.8,47.4-11.2,64.8c-6.8,9-18.7,19.8-37.5,19.8
		c-5.1,0-10.2-0.8-15-2.2c-44.7-12.9-43.3-57.1-38.4-97.4c1.5-12.1-0.8-21.9-6.5-28.3c-4.9-5.5-12.2-8.5-20.7-8.5
		c-15.6,0-35.5,10.7-41.6,30.6c-7.1,22.8,8,42.2,22.6,61c15.5,20,31.6,40.7,22.6,66.2c-5.2,14.7-24.4,34-40.6,35.8
		c-0.9,0.1-1.8,0.2-2.7,0.2c-8.6,0-14.7-4.9-21.1-10C2247,420,2241.9,415.9,2235.3,413.9z"/>
</g>
</svg>
